<svg xmlns="http://www.w3.org/2000/svg" version="1.1" xmlns:xlink="http://www.w3.org/1999/xlink" xmlns:svgjs="http://svgjs.com/svgjs" width="1440" height="200" preserveAspectRatio="none" viewBox="0 0 1440 200"><g mask="url(&quot;#SvgjsMask1091&quot;)" fill="none"><path d="M1464 200L0 200 L0 77.34Q51.92 9.26, 120 61.18Q174 -4.82, 240 49.18Q313 2.19, 360 75.19Q401.47 44.66, 432 86.12Q449.43 31.55, 504 48.98Q548.22 21.19, 576 65.41Q651.1 20.51, 696 95.6Q730.77 10.38, 816 45.15Q884.12 -6.73, 936 61.39Q986.75 40.15, 1008 90.9Q1024.13 35.03, 1080 51.15Q1124.24 23.39, 1152 67.64Q1225.92 21.57, 1272 95.49Q1299.72 51.22, 1344 78.94Q1396.22 11.16, 1464 63.38z" fill="rgba(201, 210, 223, 1)"></path><path d="M1488 200L0 200 L0 83.53Q59.27 22.8, 120 82.07Q170.07 60.14, 192 110.22Q233.88 80.1, 264 121.99Q304.04 42.03, 384 82.07Q470.93 49, 504 135.93Q518.1 78.03, 576 92.13Q646.97 43.1, 696 114.07Q738.38 84.45, 768 126.83Q806.5 45.33, 888 83.83Q932.34 56.17, 960 100.51Q1008.09 76.59, 1032 124.68Q1046.65 67.33, 1104 81.98Q1177.19 35.18, 1224 108.37Q1278.89 43.27, 1344 98.16Q1392.89 75.05, 1416 123.94Q1446.69 82.63, 1488 113.33z" fill="rgba(53, 108, 177, 1)"></path><path d="M1512 200L0 200 L0 139.16Q31.43 98.59, 72 130.02Q120.59 106.61, 144 155.2Q189.84 129.03, 216 174.87Q225.13 112, 288 121.14Q330.85 91.99, 360 134.84Q413.23 116.07, 432 169.3Q444.09 109.39, 504 121.48Q547.7 93.18, 576 136.87Q627.85 116.72, 648 168.57Q702.62 103.19, 768 157.8Q815.98 85.78, 888 133.75Q941.14 66.89, 1008 120.03Q1083.71 75.74, 1128 151.45Q1175.99 127.44, 1200 175.44Q1211.38 114.82, 1272 126.2Q1341.35 75.55, 1392 144.89Q1461.74 94.63, 1512 164.36z" fill="rgba(37, 70, 125, 1)"></path><path d="M1512 200L0 200 L0 175.57Q36.73 140.3, 72 177.02Q142.56 127.58, 192 198.14Q209.63 143.77, 264 161.4Q308.61 134, 336 178.61Q386.99 157.6, 408 208.58Q443.88 124.46, 528 160.34Q575.32 135.66, 600 182.97Q642.03 153, 672 195.03Q717.33 120.36, 792 165.68Q873.28 126.97, 912 208.25Q937.86 162.11, 984 187.97Q1013.84 145.81, 1056 175.65Q1085.08 132.73, 1128 161.8Q1184.38 146.18, 1200 202.55Q1249.07 131.62, 1320 180.69Q1349.16 137.85, 1392 167.01Q1464.99 120, 1512 192.98z" fill="rgba(0, 102, 255, 1)"></path></g><defs><mask id="SvgjsMask1091"><rect width="1440" height="200" fill="#ffffff"></rect></mask></defs></svg>